FFmpeg version SVN-r25716, Copyright (c) 2000-2010 the FFmpeg developers  built on Nov 10 2010 12:23:18 with gcc 4.1.2 20080704 (Red Hat 4.1.2-48)  configuration: --enable-libmp3lame --enable-shared --disable-mmx --arch=x86_64  libavutil     50.33. 0 / 50.33. 0  libavcore      0.12. 1 /  0.12. 1  libavcodec    52.94. 4 / 52.94. 4  libavformat   52.84. 0 / 52.84. 0  libavdevice   52. 2. 2 / 52. 2. 2  libavfilter    1.59. 0 /  1.59. 0  libswscale     0.12. 0 /  0.12. 0Input #0, mov,mp4,m4a,3gp,3g2,mj2, from '/RAID10/data/converted_video_files/8082.mov':  Metadata:    major_brand     : qt      minor_version   : 537199360    compatible_brands: qt    Duration: 00:00:39.83, start: 0.000000, bitrate: 786 kb/s    Stream #0.0(eng): Video: mjpeg, yuvj420p, 320x240 [PAR 72:72 DAR 4:3], 785 kb/s, 12 fps, 12 tbr, 12 tbn, 12 tbc[buffer @ 0x7d84b40] w:320 h:240 pixfmt:yuvj420p[ffsink @ 0x7d84860] auto-inserting filter 'auto-inserted scaler 0' between the filter 'src' and the filter 'out'[scale @ 0x7d84370] w:320 h:240 fmt:yuvj420p -> w:320 h:240 fmt:yuv420p flags:0x4Output #0, flv, to '/RAID10/data/converted_video_files/8082.flv':  Metadata:    encoder         : Lavf52.84.0    Stream #0.0(eng): Video: flv, yuv420p, 320x240 [PAR 1:1 DAR 4:3], q=2-31, 600 kb/s, 1k tbn, 24 tbcStream mapping:  Stream #0.0 -> #0.0Press [q] to stop encodingframe=  149 fps=  0 q=2.0 size=     658kB time=12.37 bitrate= 435.6kbits/s    frame=  300 fps=298 q=2.0 size=    1330kB time=24.96 bitrate= 436.4kbits/s    frame=  450 fps=298 q=2.0 size=    2018kB time=37.46 bitrate= 441.3kbits/s    frame=  478 fps=302 q=2.0 Lsize=    2062kB time=39.79 bitrate= 424.5kbits/s    video:2054kB audio:0kB global headers:0kB muxing overhead 0.373561%